<svg width="55" height="125" viewBox="0 0 55 125" fill="none" xmlns="http://www.w3.org/2000/svg">
<path d="M1.66422 124.742C3.02877 125.296 4.58414 124.639 5.13822 123.275C5.69231 121.91 5.0353 120.355 3.67074 119.801C2.30619 119.247 0.750822 119.904 0.196736 121.268C-0.35735 122.633 0.299664 124.188 1.66422 124.742ZM52.5741 0.305532C52.4666 0.0511495 52.1733 -0.0679561 51.9189 0.039502L47.7736 1.79056C47.5192 1.89802 47.4001 2.19133 47.5076 2.44572C47.615 2.70009 47.9084 2.8192 48.1627 2.71175L51.8475 1.15524L53.404 4.83999C53.5114 5.09436 53.8047 5.21347 54.0591 5.10602C54.3135 4.99856 54.4326 4.70524 54.3252 4.45086L52.5741 0.305532ZM2.66748 122.271L3.13074 122.459L52.5768 0.688199L52.1135 0.500088L51.6502 0.311976L2.20422 122.083L2.66748 122.271Z" fill="white"/>
</svg>
